<svg width="12" height="12" fill="none" xmlns="http://www.w3.org/2000/svg"><path id="Vector" d="M11.314 0a.668.668 0 00-.074.007H7.996a.666.666 0 100 1.332h1.723L3.527 7.531a.666.666 0 10.942.942l6.192-6.191v1.723a.664.664 0 00.666.675.667.667 0 00.667-.675V.758a.666.666 0 00-.68-.758zM1.333.007C.604.007 0 .61 0 1.339v9.328C0 11.396.604 12 1.333 12h9.328c.728 0 1.333-.604 1.333-1.333V6.67a.664.664 0 00-.667-.676.667.667 0 00-.666.676v3.997H1.333V1.34H5.33a.666.666 0 100-1.332H1.333z" fill="#F9F9F9" fill-opacity=".8"/></svg>